<svg width="45" height="42" viewBox="0 0 45 42" fill="none" xmlns="http://www.w3.org/2000/svg">
<path d="M0 40.9912V2.83212H10.2851V17.3654H10.4341C10.8068 16.3965 11.3533 15.5083 12.0738 14.7009C12.7942 13.8811 13.6886 13.229 14.7568 12.7445C15.8251 12.2477 17.0672 11.9992 18.4833 11.9992C20.3714 11.9992 22.1663 12.5023 23.8681 13.5085C25.5822 14.5146 26.9734 16.0984 28.0417 18.2597C29.1224 20.4211 29.6627 23.2283 29.6627 26.6815C29.6627 29.9857 29.1472 32.7246 28.1162 34.8984C27.0977 37.0722 25.7313 38.6932 24.0171 39.7615C22.3154 40.8297 20.4459 41.3638 18.4088 41.3638C17.0672 41.3638 15.8686 41.1465 14.8127 40.7117C13.7693 40.2645 12.875 39.6621 12.1297 38.9044C11.3968 38.1342 10.8316 37.2647 10.4341 36.2958H10.2105V40.9912H0ZM10.0615 26.6815C10.0615 28.0728 10.2416 29.2776 10.6018 30.2962C10.9745 31.3024 11.4962 32.0849 12.1669 32.6439C12.8501 33.1904 13.6637 33.4637 14.6078 33.4637C15.5518 33.4637 16.353 33.1967 17.0113 32.6625C17.6821 32.116 18.1914 31.3396 18.5392 30.3335C18.8994 29.3149 19.0795 28.0976 19.0795 26.6815C19.0795 25.2655 18.8994 24.0544 18.5392 23.0482C18.1914 22.0297 17.6821 21.2533 17.0113 20.7192C16.353 20.1726 15.5518 19.8994 14.6078 19.8994C13.6637 19.8994 12.8501 20.1726 12.1669 20.7192C11.4962 21.2533 10.9745 22.0297 10.6018 23.0482C10.2416 24.0544 10.0615 25.2655 10.0615 26.6815Z" fill="white"/>
<path d="M33.9668 40.9912V12.3719L44.1773 26.0482L44.2519 40.9912H33.9668ZM39.1093 9.39071C37.7181 9.39071 36.5256 8.93111 35.5319 8.01192C34.5382 7.09272 34.0413 5.9872 34.0413 4.69535C34.0413 3.40351 34.5382 2.29799 35.5319 1.37879C36.5256 0.459598 37.7181 0 39.1093 0C40.513 0 41.7054 0.459598 42.6867 1.37879C43.6805 2.29799 44.1773 3.40351 44.1773 4.69535C44.1773 5.9872 43.6805 7.09272 42.6867 8.01192C41.7054 8.93111 40.513 9.39071 39.1093 9.39071Z" fill="white"/>
</svg>
